<svg width="2027" height="273" viewBox="0 0 2027 273" fill="none" xmlns="http://www.w3.org/2000/svg">
<path d="M190.562 127.109C190.562 155.723 182.506 178.135 166.393 194.346C150.377 210.459 128.062 218.516 99.4492 218.516C69.1758 218.516 45.1523 208.652 27.3789 188.926C9.70312 169.102 0.865234 142.246 0.865234 108.359C0.865234 75.0586 9.6543 48.6914 27.2324 29.2578C44.9082 9.82422 68.834 0.107422 99.0098 0.107422C122.545 0.107422 142.467 6.50391 158.775 19.2969C175.182 32.0898 185.24 49.0332 188.951 70.127H155.26C151.354 57.041 144.469 46.8848 134.605 39.6582C124.742 32.4316 112.926 28.8184 99.1562 28.8184C78.9414 28.8184 63.0723 35.8496 51.5488 49.9121C40.123 63.877 34.4102 83.2617 34.4102 108.066C34.4102 133.359 40.2695 153.33 51.9883 167.979C63.707 182.529 79.625 189.805 99.7422 189.805C116.832 189.805 130.797 184.824 141.637 174.863C152.477 164.805 157.994 151.768 158.189 135.752V132.09H103.551V105.576H190.562V127.109ZM310.094 94.7363C303.16 87.3145 294.225 83.6035 283.287 83.6035C272.35 83.6035 263.268 87.3633 256.041 94.8828C248.814 102.305 244.811 111.924 244.029 123.74H321.08C320.689 111.826 317.027 102.158 310.094 94.7363ZM320.934 169.736H350.963C348.717 183.896 341.49 195.469 329.283 204.453C317.076 213.438 302.184 217.93 284.605 217.93C262.047 217.93 244.273 210.85 231.285 196.689C218.395 182.432 211.949 163.096 211.949 138.682C211.949 114.463 218.395 94.9805 231.285 80.2344C244.273 65.4883 261.607 58.1152 283.287 58.1152C304.576 58.1152 321.471 65.0977 333.971 79.0625C346.471 92.9297 352.721 111.582 352.721 135.02V145.859H243.883V147.764C243.883 161.24 247.643 172.031 255.162 180.137C262.682 188.242 272.74 192.295 285.338 192.295C294.225 192.295 301.842 190.244 308.189 186.143C314.537 182.041 318.785 176.572 320.934 169.736ZM496.715 196.543C483.434 210.801 465.709 217.93 443.541 217.93C421.373 217.93 403.648 210.801 390.367 196.543C377.086 182.188 370.445 162.656 370.445 137.949C370.445 113.34 377.086 93.9062 390.367 79.6484C403.648 65.293 421.373 58.1152 443.541 58.1152C465.709 58.1152 483.434 65.293 496.715 79.6484C509.996 93.9062 516.637 113.34 516.637 137.949C516.637 162.656 509.996 182.188 496.715 196.543ZM443.541 191.855C456.139 191.855 466.1 187.119 473.424 177.646C480.748 168.174 484.41 154.941 484.41 137.949C484.41 121.055 480.699 107.871 473.277 98.3984C465.953 88.9258 456.041 84.1895 443.541 84.1895C431.041 84.1895 421.08 88.9258 413.658 98.3984C406.334 107.871 402.672 121.055 402.672 137.949C402.672 154.941 406.334 168.174 413.658 177.646C421.08 187.119 431.041 191.855 443.541 191.855ZM541.1 215V60.8984H571.275V87.1191H572.008C574.547 78.1348 579.088 71.1035 585.631 66.0254C592.174 60.9473 599.986 58.4082 609.068 58.4082C612.096 58.4082 615.709 58.7988 619.908 59.5801V89.0234C617.076 87.8516 612.34 87.2656 605.699 87.2656C595.543 87.2656 587.486 90.4395 581.529 96.7871C575.67 103.135 572.74 111.777 572.74 122.715V215H541.1ZM698.424 189.365C710.826 189.365 720.738 184.678 728.16 175.303C735.68 165.928 739.439 153.33 739.439 137.51C739.439 121.689 735.68 108.994 728.16 99.4238C720.738 89.8535 710.826 85.0684 698.424 85.0684C686.217 85.0684 676.451 89.8047 669.127 99.2773C661.9 108.75 658.287 121.494 658.287 137.51C658.287 153.525 661.9 166.172 669.127 175.449C676.451 184.727 686.217 189.365 698.424 189.365ZM698.717 273.008C680.748 273.008 665.514 268.711 653.014 260.117C640.611 251.523 633.434 240.488 631.48 227.012H663.268C665.514 233.457 669.908 238.633 676.451 242.539C683.092 246.445 690.904 248.398 699.889 248.398C712.096 248.398 721.715 245.176 728.746 238.73C735.777 232.383 739.293 223.887 739.293 213.242V187.9H738.707C734.312 196.396 727.77 203.135 719.078 208.115C710.484 213.096 700.768 215.586 689.928 215.586C670.494 215.586 654.967 208.555 643.346 194.492C631.725 180.332 625.914 161.289 625.914 137.363C625.914 113.145 631.725 93.9551 643.346 79.7949C655.064 65.5371 670.836 58.4082 690.66 58.4082C701.5 58.4082 711.217 60.9961 719.811 66.1719C728.404 71.25 735.045 78.2812 739.732 87.2656H740.318V60.8984H771.08V212.217C771.08 230.576 764.488 245.273 751.305 256.309C738.219 267.441 720.689 273.008 698.717 273.008ZM893.688 94.7363C886.754 87.3145 877.818 83.6035 866.881 83.6035C855.943 83.6035 846.861 87.3633 839.635 94.8828C832.408 102.305 828.404 111.924 827.623 123.74H904.674C904.283 111.826 900.621 102.158 893.688 94.7363ZM904.527 169.736H934.557C932.311 183.896 925.084 195.469 912.877 204.453C900.67 213.438 885.777 217.93 868.199 217.93C845.641 217.93 827.867 210.85 814.879 196.689C801.988 182.432 795.543 163.096 795.543 138.682C795.543 114.463 801.988 94.9805 814.879 80.2344C827.867 65.4883 845.201 58.1152 866.881 58.1152C888.17 58.1152 905.064 65.0977 917.564 79.0625C930.064 92.9297 936.314 111.582 936.314 135.02V145.859H827.477V147.764C827.477 161.24 831.236 172.031 838.756 180.137C846.275 188.242 856.334 192.295 868.932 192.295C877.818 192.295 885.436 190.244 891.783 186.143C898.131 182.041 902.379 176.572 904.527 169.736ZM958.141 104.551C958.141 90.7812 963.707 79.5996 974.84 71.0059C985.973 62.4121 1000.52 58.1152 1018.49 58.1152C1035.58 58.1152 1049.6 62.4609 1060.53 71.1523C1071.57 79.7461 1077.33 90.9277 1077.82 104.697H1048.08C1047.3 97.666 1044.22 92.1484 1038.85 88.1445C1033.48 84.1406 1026.4 82.1387 1017.61 82.1387C1009.02 82.1387 1002.09 84.043 996.812 87.8516C991.637 91.6602 989.049 96.5918 989.049 102.646C989.049 112.021 996.91 118.662 1012.63 122.568L1038.56 128.574C1054.09 132.285 1065.07 137.363 1071.52 143.809C1078.06 150.156 1081.33 159.043 1081.33 170.469C1081.33 184.531 1075.38 195.957 1063.46 204.746C1051.65 213.535 1036.27 217.93 1017.32 217.93C999.254 217.93 984.508 213.633 973.082 205.039C961.754 196.445 955.455 185.02 954.186 170.762H985.533C986.803 178.184 990.27 183.896 995.934 187.9C1001.6 191.807 1009.21 193.76 1018.79 193.76C1028.26 193.76 1035.73 191.953 1041.2 188.34C1046.76 184.629 1049.55 179.648 1049.55 173.398C1049.55 168.418 1047.89 164.463 1044.57 161.533C1041.25 158.604 1035.58 156.113 1027.57 154.062L1000.04 147.324C972.105 140.586 958.141 126.328 958.141 104.551ZM1308.38 215L1289.05 157.871H1208.48L1189.15 215H1155.02L1231.33 3.62305H1266.78L1343.1 215H1308.38ZM1248.33 38.7793L1216.83 131.504H1280.7L1249.21 38.7793H1248.33ZM1363.32 24.4238H1395.1V60.8984H1424.4V85.9473H1395.1V170.908C1395.1 177.549 1396.62 182.432 1399.64 185.557C1402.67 188.682 1407.41 190.244 1413.85 190.244C1418.54 190.244 1422.01 190 1424.25 189.512V214.561C1420.35 215.537 1414.49 216.025 1406.68 216.025C1391.15 216.025 1380.02 212.852 1373.28 206.504C1366.64 200.059 1363.32 189.365 1363.32 174.424V85.9473H1340.9V60.8984H1363.32V24.4238ZM1502.04 192.588C1513.17 192.588 1522.5 189.219 1530.02 182.48C1537.63 175.645 1541.44 167.246 1541.44 157.285V145.127L1503.5 147.471C1494.03 148.154 1486.71 150.498 1481.53 154.502C1476.45 158.408 1473.91 163.682 1473.91 170.322C1473.91 177.061 1476.45 182.48 1481.53 186.582C1486.71 190.586 1493.54 192.588 1502.04 192.588ZM1493.25 217.637C1478.11 217.637 1465.76 213.34 1456.19 204.746C1446.71 196.152 1441.98 184.971 1441.98 171.201C1441.98 157.725 1446.96 147.031 1456.92 139.121C1466.88 131.113 1480.99 126.621 1499.25 125.645L1541.44 123.154V111.289C1541.44 102.695 1538.71 96.0059 1533.24 91.2207C1527.77 86.3379 1520.2 83.8965 1510.53 83.8965C1501.55 83.8965 1494.22 85.8984 1488.56 89.9023C1482.99 93.9062 1479.48 99.4238 1478.01 106.455H1448.13C1449.01 92.1973 1455.16 80.5762 1466.59 71.5918C1478.01 62.6074 1493.05 58.1152 1511.71 58.1152C1530.36 58.1152 1545.2 62.7051 1556.24 71.8848C1567.37 81.0645 1572.94 93.3691 1572.94 108.799V215H1542.61V189.658H1541.88C1537.49 198.154 1530.8 204.941 1521.81 210.02C1512.93 215.098 1503.4 217.637 1493.25 217.637ZM1604.87 215V3.62305H1636.51V215H1604.87ZM1670.2 215V3.62305H1701.84V215H1670.2ZM1788.27 192.588C1799.4 192.588 1808.73 189.219 1816.25 182.48C1823.86 175.645 1827.67 167.246 1827.67 157.285V145.127L1789.73 147.471C1780.26 148.154 1772.94 150.498 1767.76 154.502C1762.68 158.408 1760.14 163.682 1760.14 170.322C1760.14 177.061 1762.68 182.48 1767.76 186.582C1772.94 190.586 1779.77 192.588 1788.27 192.588ZM1779.48 217.637C1764.34 217.637 1751.99 213.34 1742.42 204.746C1732.95 196.152 1728.21 184.971 1728.21 171.201C1728.21 157.725 1733.19 147.031 1743.15 139.121C1753.11 131.113 1767.22 126.621 1785.48 125.645L1827.67 123.154V111.289C1827.67 102.695 1824.94 96.0059 1819.47 91.2207C1814 86.3379 1806.43 83.8965 1796.76 83.8965C1787.78 83.8965 1780.46 85.8984 1774.79 89.9023C1769.22 93.9062 1765.71 99.4238 1764.24 106.455H1734.36C1735.24 92.1973 1741.39 80.5762 1752.82 71.5918C1764.24 62.6074 1779.28 58.1152 1797.94 58.1152C1816.59 58.1152 1831.43 62.7051 1842.47 71.8848C1853.6 81.0645 1859.17 93.3691 1859.17 108.799V215H1828.84V189.658H1828.11C1823.72 198.154 1817.03 204.941 1808.04 210.02C1799.16 215.098 1789.63 217.637 1779.48 217.637ZM1891.1 215V3.62305H1922.45V86.6797H1923.18C1927.48 77.5977 1933.78 70.6152 1942.08 65.7324C1950.38 60.752 1960.34 58.2617 1971.96 58.2617C1988.76 58.2617 2001.94 63.4375 2011.51 73.7891C2021.18 84.1406 2026.01 98.1055 2026.01 115.684V215H1994.22V121.836C1994.22 110.312 1991.34 101.377 1985.58 95.0293C1979.92 88.6816 1971.57 85.5078 1960.53 85.5078C1948.91 85.5078 1939.68 89.2188 1932.85 96.6406C1926.11 103.965 1922.74 113.73 1922.74 125.938V215H1891.1Z" fill="#F0F0F0"/>
</svg>
