<svg width="2816" height="183" viewBox="0 0 2816 183" fill="none" xmlns="http://www.w3.org/2000/svg">
<path d="M50.8984 110.406C45.1042 116.201 38.138 119.098 30 119.098C21.862 119.098 14.8633 116.201 9.00391 110.406C3.20964 104.547 0.3125 97.5482 0.3125 89.4102C0.3125 81.2721 3.20964 74.306 9.00391 68.5117C14.8633 62.6523 21.862 59.7227 30 59.7227C38.138 59.7227 45.1042 62.6523 50.8984 68.5117C56.7578 74.306 59.6875 81.2721 59.6875 89.4102C59.6875 97.5482 56.7578 104.547 50.8984 110.406ZM186.934 105.23H204.609C205.456 112.848 209.167 118.967 215.742 123.59C222.383 128.212 230.749 130.523 240.84 130.523C250.345 130.523 258.19 128.277 264.375 123.785C270.625 119.228 273.75 113.499 273.75 106.598C273.75 100.673 271.569 95.7904 267.207 91.9492C262.91 88.1081 256.009 84.9505 246.504 82.4766L228.438 77.7891C215.417 74.4688 205.911 69.8464 199.922 63.9219C193.932 57.9323 190.938 50.1523 190.938 40.582C190.938 28.8633 195.56 19.293 204.805 11.8711C214.115 4.44922 226.094 0.738281 240.742 0.738281C254.74 0.738281 266.328 4.51432 275.508 12.0664C284.688 19.5534 289.473 29.1888 289.863 40.9727H272.285C271.504 33.4206 268.249 27.4635 262.52 23.1016C256.79 18.7396 249.336 16.5586 240.156 16.5586C231.042 16.5586 223.587 18.707 217.793 23.0039C212.064 27.3008 209.199 32.8997 209.199 39.8008C209.199 45.1393 211.283 49.5339 215.449 52.9844C219.681 56.3698 226.582 59.2995 236.152 61.7734L250.898 65.6797C265.482 69.3255 275.964 74.1758 282.344 80.2305C288.724 86.2852 291.914 94.3581 291.914 104.449C291.914 117.34 287.161 127.561 277.656 135.113C268.216 142.6 255.391 146.344 239.18 146.344C224.206 146.344 211.966 142.6 202.461 135.113C192.956 127.626 187.78 117.665 186.934 105.23ZM351.875 145.758C337.682 145.758 326.289 141.038 317.695 131.598C309.102 122.092 304.805 109.299 304.805 93.2188C304.805 77.138 309.102 64.3776 317.695 54.9375C326.289 45.4323 337.682 40.6797 351.875 40.6797C366.003 40.6797 377.363 45.4323 385.957 54.9375C394.551 64.3776 398.848 77.138 398.848 93.2188C398.848 109.234 394.551 121.995 385.957 131.5C377.363 141.005 366.003 145.758 351.875 145.758ZM330.098 120.855C335.501 127.496 342.76 130.816 351.875 130.816C360.99 130.816 368.216 127.529 373.555 120.953C378.893 114.312 381.562 105.068 381.562 93.2188C381.562 81.3698 378.893 72.1576 373.555 65.582C368.216 58.9414 360.99 55.6211 351.875 55.6211C342.76 55.6211 335.501 58.9414 330.098 65.582C324.759 72.2227 322.09 81.4349 322.09 93.2188C322.09 105.003 324.759 114.215 330.098 120.855ZM421.504 144V56.4023H407.344V42.4375H421.504V31.1094C421.504 21.3438 423.783 14.1172 428.34 9.42969C432.962 4.67708 439.961 2.30078 449.336 2.30078C452.982 2.30078 456.432 2.5612 459.688 3.08203V16.8516C456.953 16.4609 454.382 16.2656 451.973 16.2656C442.923 16.2656 438.398 21.2461 438.398 31.207V42.4375H459.199V56.4023H438.496V144H421.504ZM482.246 17.9258H499.238V42.4375H518.965V56.4023H499.238V116.754C499.238 121.376 500.247 124.794 502.266 127.008C504.284 129.156 507.474 130.23 511.836 130.23C514.57 130.23 516.914 130.068 518.867 129.742V144C516.654 144.521 513.073 144.781 508.125 144.781C498.815 144.781 492.174 142.698 488.203 138.531C484.232 134.365 482.246 127.398 482.246 117.633V56.4023H467.109V42.4375H482.246V17.9258ZM666.328 42.4375L638.008 144H620.723L597.773 65.3867H597.383L574.531 144H557.246L528.828 42.4375H545.723L566.035 125.055H566.426L589.375 42.4375H605.781L628.828 125.055H629.219L649.531 42.4375H666.328ZM711.836 131.305C719.844 131.305 726.549 128.831 731.953 123.883C737.422 118.87 740.156 112.717 740.156 105.426V97.125L713.008 98.7852C706.172 99.2409 700.866 100.901 697.09 103.766C693.379 106.63 691.523 110.471 691.523 115.289C691.523 120.107 693.379 123.98 697.09 126.91C700.801 129.84 705.716 131.305 711.836 131.305ZM708.027 145.758C697.936 145.758 689.766 142.958 683.516 137.359C677.331 131.76 674.238 124.404 674.238 115.289C674.238 106.565 677.428 99.599 683.809 94.3906C690.254 89.1823 699.336 86.2526 711.055 85.6016L740.156 83.9414V75.4453C740.156 69.2604 738.203 64.4102 734.297 60.8945C730.391 57.3789 724.922 55.6211 717.891 55.6211C711.445 55.6211 706.204 57.0534 702.168 59.918C698.132 62.7174 695.56 66.6562 694.453 71.7344H678.047C678.633 62.6849 682.539 55.263 689.766 49.4688C697.057 43.6094 706.562 40.6797 718.281 40.6797C730.195 40.6797 739.635 43.6745 746.602 49.6641C753.633 55.6536 757.148 63.694 757.148 73.7852V144H741.035V126.52H740.645C737.585 132.314 733.092 136.969 727.168 140.484C721.243 144 714.863 145.758 708.027 145.758ZM778.73 144V42.4375H794.746V59.0391H795.137C796.829 53.375 799.857 48.9154 804.219 45.6602C808.646 42.3398 813.822 40.6797 819.746 40.6797C821.113 40.6797 823.392 40.9076 826.582 41.3633V57.8672C824.759 57.2161 821.732 56.8906 817.5 56.8906C810.924 56.8906 805.651 59.0716 801.68 63.4336C797.708 67.7956 795.723 73.5573 795.723 80.7188V144H778.73ZM876.289 55.4258C868.411 55.4258 861.868 58.1602 856.66 63.6289C851.517 69.0326 848.685 75.9987 848.164 84.5273H903.34C903.145 75.9336 900.573 68.9349 895.625 63.5312C890.677 58.1276 884.232 55.4258 876.289 55.4258ZM902.949 114.898H919.648C918.151 123.883 913.464 131.272 905.586 137.066C897.773 142.861 888.366 145.758 877.363 145.758C862.845 145.758 851.419 141.07 843.086 131.695C834.753 122.32 830.586 109.625 830.586 93.6094C830.586 77.724 834.753 64.931 843.086 55.2305C851.484 45.5299 862.65 40.6797 876.582 40.6797C890.254 40.6797 901.061 45.2695 909.004 54.4492C916.947 63.6289 920.918 75.9336 920.918 91.3633V97.8086H848.066V98.7852C848.066 108.551 850.736 116.363 856.074 122.223C861.413 128.082 868.639 131.012 877.754 131.012C884.134 131.012 889.57 129.547 894.062 126.617C898.555 123.688 901.517 119.781 902.949 114.898ZM1019.84 55.4258C1011.97 55.4258 1005.42 58.1602 1000.21 63.6289C995.072 69.0326 992.24 75.9987 991.719 84.5273H1046.89C1046.7 75.9336 1044.13 68.9349 1039.18 63.5312C1034.23 58.1276 1027.79 55.4258 1019.84 55.4258ZM1046.5 114.898H1063.2C1061.71 123.883 1057.02 131.272 1049.14 137.066C1041.33 142.861 1031.92 145.758 1020.92 145.758C1006.4 145.758 994.974 141.07 986.641 131.695C978.307 122.32 974.141 109.625 974.141 93.6094C974.141 77.724 978.307 64.931 986.641 55.2305C995.039 45.5299 1006.2 40.6797 1020.14 40.6797C1033.81 40.6797 1044.62 45.2695 1052.56 54.4492C1060.5 63.6289 1064.47 75.9336 1064.47 91.3633V97.8086H991.621V98.7852C991.621 108.551 994.29 116.363 999.629 122.223C1004.97 128.082 1012.19 131.012 1021.31 131.012C1027.69 131.012 1033.12 129.547 1037.62 126.617C1042.11 123.688 1045.07 119.781 1046.5 114.898ZM1081.66 144V42.4375H1097.68V58.6484H1098.07C1101 52.9844 1105.2 48.5898 1110.66 45.4648C1116.13 42.2747 1122.68 40.6797 1130.29 40.6797C1141.36 40.6797 1149.99 44.0326 1156.17 50.7383C1162.36 57.3789 1165.45 66.4935 1165.45 78.082V144H1148.46V81.1094C1148.46 72.8411 1146.5 66.5586 1142.6 62.2617C1138.69 57.8997 1132.86 55.7188 1125.12 55.7188C1117.11 55.7188 1110.7 58.3229 1105.88 63.5312C1101.06 68.7396 1098.65 75.6406 1098.65 84.2344V144H1081.66ZM1228.44 129.84C1237.29 129.84 1244.42 126.454 1249.82 119.684C1255.23 112.913 1257.93 103.961 1257.93 92.8281C1257.93 81.6302 1255.23 72.6458 1249.82 65.875C1244.42 59.0391 1237.29 55.6211 1228.44 55.6211C1219.65 55.6211 1212.62 59.0065 1207.34 65.7773C1202.14 72.4831 1199.53 81.5 1199.53 92.8281C1199.53 104.156 1202.14 113.173 1207.34 119.879C1212.62 126.52 1219.65 129.84 1228.44 129.84ZM1229.02 182.281C1217.89 182.281 1208.32 179.449 1200.31 173.785C1192.3 168.186 1187.58 161.057 1186.15 152.398H1203.63C1205.33 157.086 1208.52 160.829 1213.2 163.629C1217.89 166.428 1223.39 167.828 1229.71 167.828C1238.43 167.828 1245.3 165.517 1250.31 160.895C1255.39 156.272 1257.93 150.152 1257.93 142.535V126.52H1257.54C1254.35 132.118 1249.89 136.578 1244.16 139.898C1238.43 143.154 1232.05 144.781 1225.02 144.781C1212.06 144.781 1201.68 140.061 1193.87 130.621C1186.05 121.181 1182.15 108.583 1182.15 92.8281C1182.15 76.9427 1186.05 64.2799 1193.87 54.8398C1201.74 45.3997 1212.26 40.6797 1225.41 40.6797C1232.57 40.6797 1239.02 42.3398 1244.75 45.6602C1250.48 48.9805 1255.03 53.6029 1258.42 59.5273H1258.71V42.4375H1274.92V141.949C1274.92 154.124 1270.76 163.889 1262.42 171.246C1254.09 178.603 1242.96 182.281 1229.02 182.281ZM1297.97 144V42.4375H1314.96V144H1297.97ZM1306.46 25.3477C1303.6 25.3477 1301.13 24.306 1299.04 22.2227C1296.96 20.1393 1295.92 17.6654 1295.92 14.8008C1295.92 11.8711 1296.96 9.39714 1299.04 7.37891C1301.13 5.29557 1303.6 4.25391 1306.46 4.25391C1309.39 4.25391 1311.9 5.29557 1313.98 7.37891C1316.07 9.39714 1317.11 11.8711 1317.11 14.8008C1317.11 17.6654 1316.07 20.1393 1313.98 22.2227C1311.9 24.306 1309.39 25.3477 1306.46 25.3477ZM1337.91 144V42.4375H1353.93V58.6484H1354.32C1357.25 52.9844 1361.45 48.5898 1366.91 45.4648C1372.38 42.2747 1378.93 40.6797 1386.54 40.6797C1397.61 40.6797 1406.24 44.0326 1412.42 50.7383C1418.61 57.3789 1421.7 66.4935 1421.7 78.082V144H1404.71V81.1094C1404.71 72.8411 1402.75 66.5586 1398.85 62.2617C1394.94 57.8997 1389.11 55.7188 1381.37 55.7188C1373.36 55.7188 1366.95 58.3229 1362.13 63.5312C1357.31 68.7396 1354.9 75.6406 1354.9 84.2344V144H1337.91ZM1484.1 55.4258C1476.22 55.4258 1469.68 58.1602 1464.47 63.6289C1459.33 69.0326 1456.5 75.9987 1455.98 84.5273H1511.15C1510.96 75.9336 1508.39 68.9349 1503.44 63.5312C1498.49 58.1276 1492.04 55.4258 1484.1 55.4258ZM1510.76 114.898H1527.46C1525.96 123.883 1521.28 131.272 1513.4 137.066C1505.59 142.861 1496.18 145.758 1485.18 145.758C1470.66 145.758 1459.23 141.07 1450.9 131.695C1442.57 122.32 1438.4 109.625 1438.4 93.6094C1438.4 77.724 1442.57 64.931 1450.9 55.2305C1459.3 45.5299 1470.46 40.6797 1484.39 40.6797C1498.07 40.6797 1508.87 45.2695 1516.82 54.4492C1524.76 63.6289 1528.73 75.9336 1528.73 91.3633V97.8086H1455.88V98.7852C1455.88 108.551 1458.55 116.363 1463.89 122.223C1469.23 128.082 1476.45 131.012 1485.57 131.012C1491.95 131.012 1497.38 129.547 1501.88 126.617C1506.37 123.688 1509.33 119.781 1510.76 114.898ZM1586.64 55.4258C1578.76 55.4258 1572.22 58.1602 1567.01 63.6289C1561.87 69.0326 1559.04 75.9987 1558.52 84.5273H1613.69C1613.5 75.9336 1610.92 68.9349 1605.98 63.5312C1601.03 58.1276 1594.58 55.4258 1586.64 55.4258ZM1613.3 114.898H1630C1628.5 123.883 1623.82 131.272 1615.94 137.066C1608.12 142.861 1598.72 145.758 1587.71 145.758C1573.2 145.758 1561.77 141.07 1553.44 131.695C1545.1 122.32 1540.94 109.625 1540.94 93.6094C1540.94 77.724 1545.1 64.931 1553.44 55.2305C1561.84 45.5299 1573 40.6797 1586.93 40.6797C1600.61 40.6797 1611.41 45.2695 1619.36 54.4492C1627.3 63.6289 1631.27 75.9336 1631.27 91.3633V97.8086H1558.42V98.7852C1558.42 108.551 1561.09 116.363 1566.43 122.223C1571.76 128.082 1578.99 131.012 1588.11 131.012C1594.49 131.012 1599.92 129.547 1604.41 126.617C1608.91 123.688 1611.87 119.781 1613.3 114.898ZM1648.46 144V42.4375H1664.47V59.0391H1664.86C1666.56 53.375 1669.58 48.9154 1673.95 45.6602C1678.37 42.3398 1683.55 40.6797 1689.47 40.6797C1690.84 40.6797 1693.12 40.9076 1696.31 41.3633V57.8672C1694.49 57.2161 1691.46 56.8906 1687.23 56.8906C1680.65 56.8906 1675.38 59.0716 1671.41 63.4336C1667.43 67.7956 1665.45 73.5573 1665.45 80.7188V144H1648.46ZM1711.05 144V42.4375H1728.05V144H1711.05ZM1719.55 25.3477C1716.69 25.3477 1714.21 24.306 1712.13 22.2227C1710.05 20.1393 1709 17.6654 1709 14.8008C1709 11.8711 1710.05 9.39714 1712.13 7.37891C1714.21 5.29557 1716.69 4.25391 1719.55 4.25391C1722.48 4.25391 1724.99 5.29557 1727.07 7.37891C1729.15 9.39714 1730.2 11.8711 1730.2 14.8008C1730.2 17.6654 1729.15 20.1393 1727.07 22.2227C1724.99 24.306 1722.48 25.3477 1719.55 25.3477ZM1751 144V42.4375H1767.01V58.6484H1767.4C1770.33 52.9844 1774.53 48.5898 1780 45.4648C1785.47 42.2747 1792.01 40.6797 1799.63 40.6797C1810.7 40.6797 1819.32 44.0326 1825.51 50.7383C1831.69 57.3789 1834.79 66.4935 1834.79 78.082V144H1817.79V81.1094C1817.79 72.8411 1815.84 66.5586 1811.93 62.2617C1808.03 57.8997 1802.2 55.7188 1794.45 55.7188C1786.45 55.7188 1780.03 58.3229 1775.21 63.5312C1770.4 68.7396 1767.99 75.6406 1767.99 84.2344V144H1751ZM1897.77 129.84C1906.63 129.84 1913.76 126.454 1919.16 119.684C1924.56 112.913 1927.27 103.961 1927.27 92.8281C1927.27 81.6302 1924.56 72.6458 1919.16 65.875C1913.76 59.0391 1906.63 55.6211 1897.77 55.6211C1888.98 55.6211 1881.95 59.0065 1876.68 65.7773C1871.47 72.4831 1868.87 81.5 1868.87 92.8281C1868.87 104.156 1871.47 113.173 1876.68 119.879C1881.95 126.52 1888.98 129.84 1897.77 129.84ZM1898.36 182.281C1887.23 182.281 1877.66 179.449 1869.65 173.785C1861.64 168.186 1856.92 161.057 1855.49 152.398H1872.97C1874.66 157.086 1877.85 160.829 1882.54 163.629C1887.23 166.428 1892.73 167.828 1899.04 167.828C1907.77 167.828 1914.64 165.517 1919.65 160.895C1924.73 156.272 1927.27 150.152 1927.27 142.535V126.52H1926.88C1923.68 132.118 1919.23 136.578 1913.5 139.898C1907.77 143.154 1901.39 144.781 1894.36 144.781C1881.4 144.781 1871.02 140.061 1863.2 130.621C1855.39 121.181 1851.48 108.583 1851.48 92.8281C1851.48 76.9427 1855.39 64.2799 1863.2 54.8398C1871.08 45.3997 1881.6 40.6797 1894.75 40.6797C1901.91 40.6797 1908.35 42.3398 1914.08 45.6602C1919.81 48.9805 1924.37 53.6029 1927.75 59.5273H1928.05V42.4375H1944.26V141.949C1944.26 154.124 1940.09 163.889 1931.76 171.246C1923.42 178.603 1912.29 182.281 1898.36 182.281ZM2042.7 173.98C2024.21 150.478 2014.96 121.995 2014.96 88.5312C2014.96 55.0677 2024.21 26.5846 2042.7 3.08203H2056.95C2049.99 11.1549 2044.13 23.4271 2039.38 39.8984C2034.62 56.3698 2032.25 72.5807 2032.25 88.5312C2032.25 104.482 2034.62 120.693 2039.38 137.164C2044.13 153.635 2049.99 165.908 2056.95 173.98H2042.7ZM2201.09 42.4375L2172.77 144H2155.49L2132.54 65.3867H2132.15L2109.3 144H2092.01L2063.59 42.4375H2080.49L2100.8 125.055H2101.19L2124.14 42.4375H2140.55L2163.59 125.055H2163.98L2184.3 42.4375H2201.09ZM2255.78 55.4258C2247.9 55.4258 2241.36 58.1602 2236.15 63.6289C2231.01 69.0326 2228.18 75.9987 2227.66 84.5273H2282.83C2282.64 75.9336 2280.07 68.9349 2275.12 63.5312C2270.17 58.1276 2263.72 55.4258 2255.78 55.4258ZM2282.44 114.898H2299.14C2297.64 123.883 2292.96 131.272 2285.08 137.066C2277.27 142.861 2267.86 145.758 2256.86 145.758C2242.34 145.758 2230.91 141.07 2222.58 131.695C2214.24 122.32 2210.08 109.625 2210.08 93.6094C2210.08 77.724 2214.24 64.931 2222.58 55.2305C2230.98 45.5299 2242.14 40.6797 2256.07 40.6797C2269.75 40.6797 2280.55 45.2695 2288.5 54.4492C2296.44 63.6289 2300.41 75.9336 2300.41 91.3633V97.8086H2227.56V98.7852C2227.56 108.551 2230.23 116.363 2235.57 122.223C2240.9 128.082 2248.13 131.012 2257.25 131.012C2263.63 131.012 2269.06 129.547 2273.55 126.617C2278.05 123.688 2281.01 119.781 2282.44 114.898ZM2325.41 52.7891H2311.25L2320.72 3.08203H2338.79L2325.41 52.7891ZM2360.27 144V3.08203H2377.27V144H2360.27ZM2401.09 144V3.08203H2418.09V144H2401.09ZM2480.29 70.4648C2480.29 61.7409 2483.81 54.612 2490.84 49.0781C2497.94 43.4792 2507.05 40.6797 2518.18 40.6797C2528.67 40.6797 2537.39 43.4792 2544.36 49.0781C2551.32 54.6771 2555 61.7734 2555.39 70.3672H2539.18C2538.59 65.4193 2536.38 61.5456 2532.54 58.7461C2528.76 55.9466 2523.78 54.5469 2517.6 54.5469C2511.41 54.5469 2506.43 55.9466 2502.66 58.7461C2498.88 61.4805 2496.99 65.0938 2496.99 69.5859C2496.99 76.487 2502.62 81.3698 2513.89 84.2344L2529.61 88.043C2539.83 90.6471 2547.02 94.0326 2551.19 98.1992C2555.42 102.301 2557.54 108.095 2557.54 115.582C2557.54 124.436 2553.76 131.695 2546.21 137.359C2538.66 142.958 2528.96 145.758 2517.11 145.758C2506.04 145.758 2496.89 143.023 2489.67 137.555C2482.51 132.021 2478.47 124.729 2477.56 115.68H2494.55C2496.44 126.487 2504.32 131.891 2518.18 131.891C2525.02 131.891 2530.42 130.556 2534.39 127.887C2538.43 125.152 2540.45 121.474 2540.45 116.852C2540.45 113.206 2539.24 110.309 2536.84 108.16C2534.49 106.012 2530.49 104.189 2524.82 102.691L2506.95 98.1016C2489.18 93.5443 2480.29 84.332 2480.29 70.4648ZM2615.94 55.4258C2608.06 55.4258 2601.52 58.1602 2596.31 63.6289C2591.17 69.0326 2588.33 75.9987 2587.81 84.5273H2642.99C2642.79 75.9336 2640.22 68.9349 2635.27 63.5312C2630.33 58.1276 2623.88 55.4258 2615.94 55.4258ZM2642.6 114.898H2659.3C2657.8 123.883 2653.11 131.272 2645.23 137.066C2637.42 142.861 2628.01 145.758 2617.01 145.758C2602.49 145.758 2591.07 141.07 2582.73 131.695C2574.4 122.32 2570.23 109.625 2570.23 93.6094C2570.23 77.724 2574.4 64.931 2582.73 55.2305C2591.13 45.5299 2602.3 40.6797 2616.23 40.6797C2629.9 40.6797 2640.71 45.2695 2648.65 54.4492C2656.6 63.6289 2660.57 75.9336 2660.57 91.3633V97.8086H2587.71V98.7852C2587.71 108.551 2590.38 116.363 2595.72 122.223C2601.06 128.082 2608.29 131.012 2617.4 131.012C2623.78 131.012 2629.22 129.547 2633.71 126.617C2638.2 123.688 2641.17 119.781 2642.6 114.898ZM2718.48 55.4258C2710.6 55.4258 2704.06 58.1602 2698.85 63.6289C2693.7 69.0326 2690.87 75.9987 2690.35 84.5273H2745.53C2745.33 75.9336 2742.76 68.9349 2737.81 63.5312C2732.86 58.1276 2726.42 55.4258 2718.48 55.4258ZM2745.14 114.898H2761.84C2760.34 123.883 2755.65 131.272 2747.77 137.066C2739.96 142.861 2730.55 145.758 2719.55 145.758C2705.03 145.758 2693.61 141.07 2685.27 131.695C2676.94 122.32 2672.77 109.625 2672.77 93.6094C2672.77 77.724 2676.94 64.931 2685.27 55.2305C2693.67 45.5299 2704.84 40.6797 2718.77 40.6797C2732.44 40.6797 2743.25 45.2695 2751.19 54.4492C2759.13 63.6289 2763.11 75.9336 2763.11 91.3633V97.8086H2690.25V98.7852C2690.25 108.551 2692.92 116.363 2698.26 122.223C2703.6 128.082 2710.83 131.012 2719.94 131.012C2726.32 131.012 2731.76 129.547 2736.25 126.617C2740.74 123.688 2743.7 119.781 2745.14 114.898ZM2812.71 59.0391C2814.34 68.0885 2815.16 77.9193 2815.16 88.5312C2815.16 99.1432 2814.34 109.007 2812.71 118.121C2811.15 127.171 2808.91 135.178 2805.98 142.145C2803.05 149.111 2800.15 154.938 2797.29 159.625C2794.49 164.378 2791.2 169.163 2787.42 173.98H2773.16C2775.57 171.181 2778.08 167.307 2780.68 162.359C2783.35 157.477 2786.02 151.454 2788.69 144.293C2791.36 137.197 2793.54 128.733 2795.23 118.902C2796.99 109.072 2797.87 98.9479 2797.87 88.5312C2797.87 78.1146 2796.99 67.9909 2795.23 58.1602C2793.54 48.2643 2791.33 39.7682 2788.59 32.6719C2785.92 25.5755 2783.29 19.5859 2780.68 14.7031C2778.08 9.75521 2775.57 5.88151 2773.16 3.08203H2787.42C2791.2 7.89974 2794.49 12.6849 2797.29 17.4375C2800.15 22.125 2803.05 27.9518 2805.98 34.918C2808.91 41.8841 2811.15 49.9245 2812.71 59.0391Z" fill="#F0F0F0"/>
</svg>
