<svg width="1364" height="144" viewBox="0 0 1364 144" fill="none" xmlns="http://www.w3.org/2000/svg">
<path d="M50.8984 108.406C45.1042 114.201 38.138 117.098 30 117.098C21.862 117.098 14.8633 114.201 9.00391 108.406C3.20964 102.547 0.3125 95.5482 0.3125 87.4102C0.3125 79.2721 3.20964 72.306 9.00391 66.5117C14.8633 60.6523 21.862 57.7227 30 57.7227C38.138 57.7227 45.1042 60.6523 50.8984 66.5117C56.7578 72.306 59.6875 79.2721 59.6875 87.4102C59.6875 95.5482 56.7578 102.547 50.8984 108.406ZM246.895 142H229.316V16.9023H184.883V1.08203H291.328V16.9023H246.895V142ZM321.602 53.4258C313.724 53.4258 307.181 56.1602 301.973 61.6289C296.829 67.0326 293.997 73.9987 293.477 82.5273H348.652C348.457 73.9336 345.885 66.9349 340.938 61.5312C335.99 56.1276 329.544 53.4258 321.602 53.4258ZM348.262 112.898H364.961C363.464 121.883 358.776 129.272 350.898 135.066C343.086 140.861 333.678 143.758 322.676 143.758C308.158 143.758 296.732 139.07 288.398 129.695C280.065 120.32 275.898 107.625 275.898 91.6094C275.898 75.724 280.065 62.931 288.398 53.2305C296.797 43.5299 307.962 38.6797 321.895 38.6797C335.566 38.6797 346.374 43.2695 354.316 52.4492C362.259 61.6289 366.23 73.9336 366.23 89.3633V95.8086H293.379V96.7852C293.379 106.551 296.048 114.363 301.387 120.223C306.725 126.082 313.952 129.012 323.066 129.012C329.447 129.012 334.883 127.547 339.375 124.617C343.867 121.688 346.829 117.781 348.262 112.898ZM416.914 129.305C424.922 129.305 431.628 126.831 437.031 121.883C442.5 116.87 445.234 110.717 445.234 103.426V95.125L418.086 96.7852C411.25 97.2409 405.944 98.901 402.168 101.766C398.457 104.63 396.602 108.471 396.602 113.289C396.602 118.107 398.457 121.98 402.168 124.91C405.879 127.84 410.794 129.305 416.914 129.305ZM413.105 143.758C403.014 143.758 394.844 140.958 388.594 135.359C382.409 129.76 379.316 122.404 379.316 113.289C379.316 104.565 382.507 97.599 388.887 92.3906C395.332 87.1823 404.414 84.2526 416.133 83.6016L445.234 81.9414V73.4453C445.234 67.2604 443.281 62.4102 439.375 58.8945C435.469 55.3789 430 53.6211 422.969 53.6211C416.523 53.6211 411.283 55.0534 407.246 57.918C403.21 60.7174 400.638 64.6562 399.531 69.7344H383.125C383.711 60.6849 387.617 53.263 394.844 47.4688C402.135 41.6094 411.641 38.6797 423.359 38.6797C435.273 38.6797 444.714 41.6745 451.68 47.6641C458.711 53.6536 462.227 61.694 462.227 71.7852V142H446.113V124.52H445.723C442.663 130.314 438.171 134.969 432.246 138.484C426.322 142 419.941 143.758 413.105 143.758ZM483.809 142V40.4375H499.824V56.6484H500.215C502.689 51.1146 506.432 46.7526 511.445 43.5625C516.458 40.3073 522.318 38.6797 529.023 38.6797C535.924 38.6797 541.849 40.3724 546.797 43.7578C551.745 47.0781 555.326 51.8307 557.539 58.0156H557.93C560.729 51.9609 564.928 47.2409 570.527 43.8555C576.191 40.4049 582.604 38.6797 589.766 38.6797C599.792 38.6797 607.799 41.707 613.789 47.7617C619.844 53.7513 622.871 61.7917 622.871 71.8828V142H605.879V75.7891C605.879 68.8229 604.023 63.4193 600.312 59.5781C596.667 55.6719 591.491 53.7188 584.785 53.7188C578.079 53.7188 572.578 55.9648 568.281 60.457C563.984 64.8841 561.836 70.5482 561.836 77.4492V142H544.844V73.9336C544.844 67.8138 542.956 62.931 539.18 59.2852C535.404 55.5742 530.358 53.7188 524.043 53.7188C517.337 53.7188 511.771 56.0625 507.344 60.75C502.982 65.4375 500.801 71.2969 500.801 78.3281V142H483.809ZM726.289 53.4258C718.411 53.4258 711.868 56.1602 706.66 61.6289C701.517 67.0326 698.685 73.9987 698.164 82.5273H753.34C753.145 73.9336 750.573 66.9349 745.625 61.5312C740.677 56.1276 734.232 53.4258 726.289 53.4258ZM752.949 112.898H769.648C768.151 121.883 763.464 129.272 755.586 135.066C747.773 140.861 738.366 143.758 727.363 143.758C712.845 143.758 701.419 139.07 693.086 129.695C684.753 120.32 680.586 107.625 680.586 91.6094C680.586 75.724 684.753 62.931 693.086 53.2305C701.484 43.5299 712.65 38.6797 726.582 38.6797C740.254 38.6797 751.061 43.2695 759.004 52.4492C766.947 61.6289 770.918 73.9336 770.918 89.3633V95.8086H698.066V96.7852C698.066 106.551 700.736 114.363 706.074 120.223C711.413 126.082 718.639 129.012 727.754 129.012C734.134 129.012 739.57 127.547 744.062 124.617C748.555 121.688 751.517 117.781 752.949 112.898ZM788.105 142V40.4375H804.121V56.6484H804.512C807.441 50.9844 811.641 46.5898 817.109 43.4648C822.578 40.2747 829.121 38.6797 836.738 38.6797C847.806 38.6797 856.432 42.0326 862.617 48.7383C868.802 55.3789 871.895 64.4935 871.895 76.082V142H854.902V79.1094C854.902 70.8411 852.949 64.5586 849.043 60.2617C845.137 55.8997 839.31 53.7188 831.562 53.7188C823.555 53.7188 817.142 56.3229 812.324 61.5312C807.507 66.7396 805.098 73.6406 805.098 82.2344V142H788.105ZM899.043 142V54.4023H884.883V40.4375H899.043V29.1094C899.043 19.3438 901.322 12.1172 905.879 7.42969C910.501 2.67708 917.5 0.300781 926.875 0.300781C930.521 0.300781 933.971 0.561198 937.227 1.08203V14.8516C934.492 14.4609 931.921 14.2656 929.512 14.2656C920.462 14.2656 915.938 19.2461 915.938 29.207V40.4375H936.738V54.4023H916.035V142H899.043ZM991.523 143.758C977.331 143.758 965.938 139.038 957.344 129.598C948.75 120.092 944.453 107.299 944.453 91.2188C944.453 75.138 948.75 62.3776 957.344 52.9375C965.938 43.4323 977.331 38.6797 991.523 38.6797C1005.65 38.6797 1017.01 43.4323 1025.61 52.9375C1034.2 62.3776 1038.5 75.138 1038.5 91.2188C1038.5 107.234 1034.2 119.995 1025.61 129.5C1017.01 139.005 1005.65 143.758 991.523 143.758ZM969.746 118.855C975.15 125.496 982.409 128.816 991.523 128.816C1000.64 128.816 1007.86 125.529 1013.2 118.953C1018.54 112.312 1021.21 103.068 1021.21 91.2188C1021.21 79.3698 1018.54 70.1576 1013.2 63.582C1007.86 56.9414 1000.64 53.6211 991.523 53.6211C982.409 53.6211 975.15 56.9414 969.746 63.582C964.408 70.2227 961.738 79.4349 961.738 91.2188C961.738 103.003 964.408 112.215 969.746 118.855ZM1055.68 142V40.4375H1071.7V57.0391H1072.09C1073.78 51.375 1076.81 46.9154 1081.17 43.6602C1085.6 40.3398 1090.77 38.6797 1096.7 38.6797C1098.07 38.6797 1100.35 38.9076 1103.54 39.3633V55.8672C1101.71 55.2161 1098.68 54.8906 1094.45 54.8906C1087.88 54.8906 1082.6 57.0716 1078.63 61.4336C1074.66 65.7956 1072.68 71.5573 1072.68 78.7188V142H1055.68ZM1196.89 73.7383H1180.29C1178.99 67.8789 1176.09 63.0612 1171.6 59.2852C1167.17 55.5091 1161.41 53.6211 1154.32 53.6211C1145.46 53.6211 1138.33 57.0391 1132.93 63.875C1127.53 70.6458 1124.82 79.7604 1124.82 91.2188C1124.82 102.872 1127.53 112.052 1132.93 118.758C1138.4 125.464 1145.59 128.816 1154.51 128.816C1161.35 128.816 1166.98 127.124 1171.41 123.738C1175.9 120.288 1178.89 115.47 1180.39 109.285H1197.09C1195.79 119.441 1191.2 127.742 1183.32 134.188C1175.51 140.568 1165.87 143.758 1154.41 143.758C1140.22 143.758 1128.86 139.07 1120.33 129.695C1111.8 120.255 1107.54 107.43 1107.54 91.2188C1107.54 75.2682 1111.8 62.5404 1120.33 53.0352C1128.86 43.4648 1140.16 38.6797 1154.22 38.6797C1166.33 38.6797 1176.16 42.0977 1183.71 48.9336C1191.33 55.7695 1195.72 64.0378 1196.89 73.7383ZM1253.44 53.4258C1245.56 53.4258 1239.02 56.1602 1233.81 61.6289C1228.67 67.0326 1225.83 73.9987 1225.31 82.5273H1280.49C1280.29 73.9336 1277.72 66.9349 1272.77 61.5312C1267.83 56.1276 1261.38 53.4258 1253.44 53.4258ZM1280.1 112.898H1296.8C1295.3 121.883 1290.61 129.272 1282.73 135.066C1274.92 140.861 1265.51 143.758 1254.51 143.758C1239.99 143.758 1228.57 139.07 1220.23 129.695C1211.9 120.32 1207.73 107.625 1207.73 91.6094C1207.73 75.724 1211.9 62.931 1220.23 53.2305C1228.63 43.5299 1239.8 38.6797 1253.73 38.6797C1267.4 38.6797 1278.21 43.2695 1286.15 52.4492C1294.1 61.6289 1298.07 73.9336 1298.07 89.3633V95.8086H1225.21V96.7852C1225.21 106.551 1227.88 114.363 1233.22 120.223C1238.56 126.082 1245.79 129.012 1254.9 129.012C1261.28 129.012 1266.72 127.547 1271.21 124.617C1275.7 121.688 1278.67 117.781 1280.1 112.898ZM1315.25 142V40.4375H1331.27V57.0391H1331.66C1333.35 51.375 1336.38 46.9154 1340.74 43.6602C1345.17 40.3398 1350.35 38.6797 1356.27 38.6797C1357.64 38.6797 1359.92 38.9076 1363.11 39.3633V55.8672C1361.28 55.2161 1358.26 54.8906 1354.02 54.8906C1347.45 54.8906 1342.17 57.0716 1338.2 61.4336C1334.23 65.7956 1332.25 71.5573 1332.25 78.7188V142H1315.25Z" fill="#F0F0F0"/>
</svg>
